<mxfile host="www.draw.io" modified="2019-10-17T10:05:47.332Z" agent="Mozilla/5.0 (Macintosh; Intel Mac OS X 10_14_6) AppleWebKit/537.36 (KHTML, like Gecko) Chrome/77.0.3865.120 Safari/537.36" etag="K2xaCjLJHIgDYqQS5P6Q" version="12.1.2" type="github" pages="1">
  <diagram name="Page-1" id="2a216829-ef6e-dabb-86c1-c78162f3ba2b">
    <mxGraphModel dx="1652" dy="714" grid="1" gridSize="10" guides="1" tooltips="1" connect="1" arrows="1" fold="1" page="1" pageScale="1" pageWidth="850" pageHeight="1100" background="#ffffff" math="0" shadow="0">
      <root>
        <mxCell id="0"/>
        <mxCell id="1" parent="0"/>
        <mxCell id="C9i3vvxJChB0CS1iuCSE-15" style="edgeStyle=orthogonalEdgeStyle;rounded=0;orthogonalLoop=1;jettySize=auto;html=1;exitX=1;exitY=1;exitDx=0;exitDy=0;entryX=0.5;entryY=0;entryDx=0;entryDy=0;" edge="1" parent="1" source="C9i3vvxJChB0CS1iuCSE-1" target="C9i3vvxJChB0CS1iuCSE-12">
          <mxGeometry relative="1" as="geometry">
            <Array as="points">
              <mxPoint x="650" y="88"/>
            </Array>
          </mxGeometry>
        </mxCell>
        <mxCell id="C9i3vvxJChB0CS1iuCSE-16" style="edgeStyle=orthogonalEdgeStyle;rounded=0;orthogonalLoop=1;jettySize=auto;html=1;exitX=0;exitY=1;exitDx=0;exitDy=0;entryX=0.5;entryY=0;entryDx=0;entryDy=0;" edge="1" parent="1" source="C9i3vvxJChB0CS1iuCSE-1" target="C9i3vvxJChB0CS1iuCSE-2">
          <mxGeometry relative="1" as="geometry">
            <Array as="points">
              <mxPoint x="130" y="88"/>
            </Array>
          </mxGeometry>
        </mxCell>
        <mxCell id="C9i3vvxJChB0CS1iuCSE-17" style="edgeStyle=orthogonalEdgeStyle;rounded=0;orthogonalLoop=1;jettySize=auto;html=1;exitX=0.5;exitY=1;exitDx=0;exitDy=0;" edge="1" parent="1" source="C9i3vvxJChB0CS1iuCSE-1" target="C9i3vvxJChB0CS1iuCSE-3">
          <mxGeometry relative="1" as="geometry"/>
        </mxCell>
        <mxCell id="C9i3vvxJChB0CS1iuCSE-1" value="&lt;span style=&quot;color: rgb(23 , 43 , 77) ; font-family: , , &amp;#34;segoe ui&amp;#34; , &amp;#34;roboto&amp;#34; , &amp;#34;oxygen&amp;#34; , &amp;#34;ubuntu&amp;#34; , &amp;#34;fira sans&amp;#34; , &amp;#34;droid sans&amp;#34; , &amp;#34;helvetica neue&amp;#34; , sans-serif ; font-size: 14px ; text-align: left ; white-space: normal ; background-color: rgb(255 , 255 , 255)&quot;&gt;一种用于防止黑客通过前端页面恶意调用后台的方法&lt;/span&gt;" style="ellipse;whiteSpace=wrap;html=1;" vertex="1" parent="1">
          <mxGeometry x="200" y="20" width="360" height="80" as="geometry"/>
        </mxCell>
        <mxCell id="C9i3vvxJChB0CS1iuCSE-14" style="edgeStyle=orthogonalEdgeStyle;rounded=0;orthogonalLoop=1;jettySize=auto;html=1;exitX=1;exitY=0.5;exitDx=0;exitDy=0;entryX=0;entryY=0.5;entryDx=0;entryDy=0;" edge="1" parent="1" source="C9i3vvxJChB0CS1iuCSE-2" target="C9i3vvxJChB0CS1iuCSE-3">
          <mxGeometry relative="1" as="geometry"/>
        </mxCell>
        <mxCell id="C9i3vvxJChB0CS1iuCSE-2" value="建立nodejs后台中转机制&amp;nbsp;" style="whiteSpace=wrap;html=1;aspect=fixed;" vertex="1" parent="1">
          <mxGeometry x="50" y="230" width="160" height="160" as="geometry"/>
        </mxCell>
        <mxCell id="C9i3vvxJChB0CS1iuCSE-13" style="edgeStyle=orthogonalEdgeStyle;rounded=0;orthogonalLoop=1;jettySize=auto;html=1;exitX=1;exitY=0.5;exitDx=0;exitDy=0;entryX=0;entryY=0.5;entryDx=0;entryDy=0;" edge="1" parent="1" source="C9i3vvxJChB0CS1iuCSE-3" target="C9i3vvxJChB0CS1iuCSE-12">
          <mxGeometry relative="1" as="geometry"/>
        </mxCell>
        <mxCell id="C9i3vvxJChB0CS1iuCSE-3" value="在首次请求时添加公共信息" style="whiteSpace=wrap;html=1;aspect=fixed;" vertex="1" parent="1">
          <mxGeometry x="300" y="230" width="160" height="160" as="geometry"/>
        </mxCell>
        <mxCell id="C9i3vvxJChB0CS1iuCSE-12" value="&lt;span style=&quot;white-space: normal&quot;&gt;后续请求是通过检验是否带有公共信息 （如果带有公共信息）&lt;/span&gt;" style="whiteSpace=wrap;html=1;aspect=fixed;" vertex="1" parent="1">
          <mxGeometry x="570" y="230" width="160" height="160" as="geometry"/>
        </mxCell>
        <mxCell id="C9i3vvxJChB0CS1iuCSE-18" value="返回err" style="text;html=1;resizable=0;points=[];autosize=1;align=left;verticalAlign=top;spacingTop=-4;" vertex="1" parent="1">
          <mxGeometry x="584" y="124" width="50" height="20" as="geometry"/>
        </mxCell>
      </root>
    </mxGraphModel>
  </diagram>
</mxfile>
